<?xml version="1.0" encoding="UTF-8" standalone="no"?>
<!-- Created with Inkscape (http://www.inkscape.org/) -->

<svg
   xmlns:dc="http://purl.org/dc/elements/1.1/"
   xmlns:cc="http://creativecommons.org/ns#"
   xmlns:rdf="http://www.w3.org/1999/02/22-rdf-syntax-ns#"
   xmlns:svg="http://www.w3.org/2000/svg"
   xmlns="http://www.w3.org/2000/svg"
   xmlns:sodipodi="http://sodipodi.sourceforge.net/DTD/sodipodi-0.dtd"
   xmlns:inkscape="http://www.inkscape.org/namespaces/inkscape"
   width="210mm"
   height="297mm"
   viewBox="0 0 210 297"
   version="1.1"
   id="svg8"
   inkscape:version="0.92.4 (unknown)"
   sodipodi:docname="signature.svg">
  <defs
     id="defs2" />
  <sodipodi:namedview
     id="base"
     pagecolor="#ffffff"
     bordercolor="#666666"
     borderopacity="1.0"
     inkscape:pageopacity="0.0"
     inkscape:pageshadow="2"
     inkscape:zoom="1.979899"
     inkscape:cx="458.72606"
     inkscape:cy="923.78506"
     inkscape:document-units="mm"
     inkscape:current-layer="layer1"
     showgrid="false"
     inkscape:window-width="1912"
     inkscape:window-height="1052"
     inkscape:window-x="0"
     inkscape:window-y="20"
     inkscape:window-maximized="0" />
  <metadata
     id="metadata5">
    <rdf:RDF>
      <cc:Work
         rdf:about="">
        <dc:format>image/svg+xml</dc:format>
        <dc:type
           rdf:resource="http://purl.org/dc/dcmitype/StillImage" />
        <dc:title></dc:title>
      </cc:Work>
    </rdf:RDF>
  </metadata>
  <g
     inkscape:label="Layer 1"
     inkscape:groupmode="layer"
     id="layer1">
    <path
       style="fill:#000000;fill-opacity:1;fill-rule:nonzero;stroke:none;stroke-width:0.26565713"
       id="path815"
       d="m 61.781272,50.943292 c 0.576401,-1.99099 1.147685,-3.984992 1.732466,-5.970972 1.000643,-3.470599 2.024771,-6.926179 3.068364,-10.37032 0.406385,-1.312419 0.798528,-2.633887 1.141254,-3.983712 0.251895,-0.840844 0.150894,-0.577685 1.573135,-1.137302 0.08959,-0.03525 0.07673,0.243835 0.111297,0.368038 0.269718,0.969047 0.534579,1.93769 0.814814,2.901138 1.204202,3.966722 2.677384,7.744161 4.138878,11.521479 0.78931,2.047246 1.627036,4.05634 2.370236,6.139998 0.23681,0.663933 0.462797,1.335769 0.694909,2.003136 0.287233,0.750772 0.482712,1.594354 0.821692,2.304999 -0.489943,0.384621 -0.953145,0.850471 -1.469826,1.153863 -0.0587,0.03447 -0.06897,-0.153286 -0.103085,-0.230258 -0.06512,-0.146875 -0.12872,-0.295142 -0.194623,-0.441284 -0.394305,-0.874381 -0.804809,-1.728178 -1.224561,-2.577633 -1.295617,-2.597842 -2.763829,-5.030236 -4.511286,-7.01947 -0.399251,-0.45449 -0.822529,-0.863344 -1.233792,-1.295017 -1.892264,-1.778935 -4.004482,-3.271323 -6.301206,-3.452901 -0.386279,-0.03055 -0.773524,0.02523 -1.160284,0.03785 -1.245833,0.367978 -0.936885,0.170213 -2.080574,0.923105 -0.128555,0.08462 0.473307,-0.383326 0.397908,-0.211066 -0.187632,0.428651 -0.530679,0.669329 -0.764316,1.048144 -0.634165,1.028218 -0.692951,1.377652 -1.125754,2.586414 -0.09959,0.477162 -0.234799,0.941808 -0.29877,1.43148 -0.18936,1.449429 -0.02461,2.904474 0.563127,4.13136 0.535209,1.117247 0.913499,1.349359 1.679185,2.12947 0.385917,0.259164 0.759478,0.560593 1.157753,0.777491 1.777174,0.967846 3.774691,1.200829 5.647756,0.788368 0.501691,-0.110474 0.990671,-0.318513 1.486008,-0.477772 1.256032,-0.670079 1.742041,-0.822694 2.890087,-1.872342 0.09233,-0.08442 0.110322,-0.277317 0.189745,-0.385629 0.418106,-0.570176 0.887186,-1.060484 1.297411,-1.642424 1.089407,-1.54541 1.310292,-2.129434 2.208099,-3.896804 1.133054,-2.551632 1.911724,-5.290857 2.018342,-8.344395 0.05498,-1.574634 -0.04928,-2.064495 -0.211123,-3.577365 -0.205008,-1.254461 -0.471993,-2.500417 -0.924048,-3.621095 -0.09127,-0.226268 -0.190066,-0.449095 -0.309795,-0.645897 -0.258037,-0.424138 -0.208894,-0.365832 -0.435345,-0.164432 0.426868,-0.239623 0.827289,-0.814182 1.280604,-0.718868 0.225306,0.04738 -0.03609,0.656522 -0.02043,0.983838 0.02388,0.499061 0.0736,0.996 0.138685,1.48738 0.174289,1.315797 0.464428,2.773543 0.783972,4.021555 0.192498,0.75182 0.426626,1.480126 0.639941,2.220193 0.264679,0.70845 0.502544,1.439106 0.794044,2.125349 0.793867,1.868914 1.796093,3.62299 3.077903,4.838427 1.00532,0.953265 1.226704,0.910404 2.343945,1.352731 0.38451,0.01422 0.77098,0.100302 1.153528,0.04264 0.744877,-0.112271 1.580379,-0.562573 2.197439,-1.167808 0.06022,-0.05907 -0.258528,0.01965 -0.21405,-0.06349 0.27409,-0.512297 0.661505,-0.876415 0.969044,-1.347645 0.309541,-0.4743 0.58669,-0.990422 0.880033,-1.485636 0.729622,-1.287183 1.341853,-2.698462 2.030871,-4.028485 0.189481,-0.365761 0.633735,-1.235098 0.945593,-1.510669 0.58634,-0.518107 1.213235,-0.934244 1.819855,-1.401366 0.176722,0.04197 0.362538,0.03501 0.530168,0.125906 0.656338,0.355892 1.291162,1.383523 1.767657,2.079849 1.374119,2.008081 -0.06717,-0.06348 1.336095,1.942711 0.814717,1.090622 1.694284,2.158518 2.766653,2.676395 0.62719,0.302888 0.79073,0.259148 1.44518,0.325338 1.37607,-0.03639 2.67634,-0.710173 3.9853,-1.243478 0.29377,-0.111789 0.59769,-0.208141 0.90403,-0.190676 0.23604,0.01345 0.47759,0.08988 0.71148,0.134232 0.74798,0.145524 1.50185,0.109113 2.25368,0.07731 0.54134,-0.05347 0.27683,-0.03195 0.79346,-0.06578 0,0 -1.29943,1.372787 -1.29943,1.372787 v 0 c -0.50933,0.03003 -0.24687,0.01205 -0.78734,0.05494 -0.76453,0.02912 -1.5311,0.05833 -2.29199,-0.08155 -0.54485,-0.0945 -1.00701,-0.154669 -1.54568,0.09621 -1.30766,0.509016 -2.61049,1.152131 -3.98201,1.140638 -0.67345,-0.09356 -0.83124,-0.05331 -1.471672,-0.388783 -1.07347,-0.562317 -1.948277,-1.663036 -2.768289,-2.770165 -0.450682,-0.641432 -0.894531,-1.292846 -1.347722,-1.930608 -0.474019,-0.667081 -1.095426,-1.635908 -1.763901,-1.905236 -0.155753,-0.06275 -0.323033,-0.02376 -0.484549,-0.03565 0.293691,-0.288088 0.562112,-0.638759 0.881072,-0.864262 0.190382,-0.134599 -0.340423,0.368443 -0.488715,0.58687 -0.193176,0.284526 -0.36166,0.602237 -0.531617,0.916015 -0.720749,1.330651 -1.346062,2.76416 -2.082889,4.077742 -0.45221,0.778247 -1.252732,2.247083 -1.825198,2.870725 -0.724733,0.78952 -1.49914,1.48282 -2.279786,2.152576 -0.701049,0.601462 -1.428939,1.004611 -2.248806,1.092492 -0.387776,0.04157 -0.776485,-0.06247 -1.164729,-0.0937 -1.118238,-0.491185 -1.344372,-0.461154 -2.344711,-1.451249 -1.759921,-1.74189 -2.929343,-4.382371 -3.871435,-7.079608 -0.220727,-0.740003 -0.458956,-1.469667 -0.662179,-2.220005 -0.473557,-1.748468 -0.884065,-3.599786 -1.077172,-5.462499 -0.03474,-0.335105 -0.198113,-0.744061 -0.05539,-1.013332 0.384583,-0.725576 0.994667,-1.131371 1.492001,-1.697053 0.07417,0.01738 0.158802,-0.0053 0.222516,0.05214 0.227226,0.204762 0.451905,0.79127 0.556066,1.080524 0.422503,1.17327 0.681914,2.447249 0.875363,3.734171 0.150764,1.529921 0.253622,2.065331 0.194304,3.652199 -0.11568,3.094727 -0.898782,5.87716 -2.04022,8.472135 -0.889627,1.776148 -1.115306,2.374588 -2.193067,3.934105 -1.314185,1.901624 -2.081422,2.512336 -3.847477,4.033061 -0.465232,0.400604 -0.947126,0.764775 -1.443687,1.077685 -0.480887,0.30303 -0.988083,0.510677 -1.482124,0.766015 -0.500409,0.153238 -0.994853,0.354782 -1.501226,0.459714 -1.901121,0.393965 -3.919519,0.137896 -5.719952,-0.845256 -0.407763,-0.222665 -0.790608,-0.53049 -1.185912,-0.795732 -0.796961,-0.806431 -1.182449,-1.038631 -1.741909,-2.196368 -0.612496,-1.267484 -0.793995,-2.772411 -0.611885,-4.278176 0.06068,-0.501683 0.193706,-0.979494 0.290557,-1.469241 0.424208,-1.238233 0.478368,-1.587893 1.104774,-2.65069 0.859476,-1.458237 1.617043,-1.974436 2.915018,-2.983901 0.315569,-0.245423 0.657247,-0.422904 1.002612,-0.561995 0.358476,-0.144373 0.732706,-0.189624 1.099059,-0.284434 0.38836,-0.0013 0.777774,-0.04501 1.165081,-0.0037 2.300383,0.24491 4.402775,1.784675 6.295269,3.581389 0.4136,0.435596 0.838423,0.849886 1.240798,1.306787 1.761867,2.000612 3.261509,4.420145 4.619975,6.980685 0.442348,0.831943 0.872751,1.674913 1.309471,2.512796 0.07213,0.138397 0.143726,0.277429 0.218132,0.413303 0.03889,0.07102 0.17075,0.150808 0.121649,0.207169 -0.432859,0.496871 -0.938331,0.845891 -1.407495,1.268833 -0.22434,-0.808047 -0.510143,-1.580571 -0.728028,-2.392895 -0.07091,-0.222916 -0.604793,-1.902411 -0.648727,-2.034701 -0.701502,-2.112349 -1.512049,-4.143906 -2.285469,-6.201978 -1.444009,-3.795909 -2.910933,-7.576422 -4.229468,-11.467605 -0.308158,-0.933657 -0.606167,-1.877518 -0.925287,-2.803687 -0.03111,-0.09031 -0.155878,-0.203873 -0.100518,-0.26553 0.4289,-0.477674 0.93475,-0.79139 1.40296,-1.185022 0.02412,-0.02028 -0.04709,0.04327 -0.07064,0.06492 -0.435994,1.356137 -0.821121,2.746921 -1.284728,4.085244 -1.085945,3.423987 -2.123468,6.877829 -3.08799,10.377053 -0.545033,1.934654 -1.076409,3.877128 -1.566854,5.842141 0,0 -1.497576,1.013444 -1.497576,1.013444 z"
       inkscape:connector-curvature="0" />
    <path
       style="fill:#000000;fill-opacity:1;fill-rule:nonzero;stroke:none;stroke-width:0.26458332"
       id="path817"
       d="m 114.53899,42.054375 c 0.3668,0.150648 0.72909,0.289062 1.12586,0.327136 0,0 -1.61555,1.140047 -1.61555,1.140047 v 0 c -0.39969,-0.07176 -0.76911,-0.235199 -1.15343,-0.361204 0,0 1.64312,-1.105979 1.64312,-1.105979 z"
       inkscape:connector-curvature="0" />
  </g>
</svg>
